<svg xmlns="http://www.w3.org/2000/svg" width="594" height="525.758" viewBox="0 0 594 525.758">
  <g id="Group_1089" data-name="Group 1089" transform="translate(-13.837 -17.212)">
    <g id="Group_1040" data-name="Group 1040" transform="translate(50.697 17.212)">
      <circle id="Ellipse_9342" data-name="Ellipse 9342" cx="262.878" cy="262.878" r="262.878" fill="#587085"/>
    </g>
    <path id="Path_36198" data-name="Path 36198" d="M272.693,113.466H27.628C61.207,219.985,160.759,297.234,278.371,297.234s217.163-77.249,250.743-183.769Z" transform="translate(35.204 245.736)" fill="#473950"/>
    <g id="Group_1088" data-name="Group 1088" transform="translate(13.839 81.122)">
      <g id="Group_1087" data-name="Group 1087">
        <path id="Path_36199" data-name="Path 36199" d="M96.6,304.887H298.055V127.947L98.021,54.4Z" transform="translate(197.451 13.818)" fill="#dccbb8"/>
        <path id="Path_36200" data-name="Path 36200" d="M249.706,312.659H41.5V130.034L248.285,54Z" transform="translate(56.781 12.797)" fill="#e7d6c4"/>
        <rect id="Rectangle_726" data-name="Rectangle 726" width="41.57" height="220.642" transform="translate(180.355 115.828)" fill="#dccbb9"/>
        <rect id="Rectangle_727" data-name="Rectangle 727" width="41.57" height="220.642" transform="translate(378.613 115.828)" fill="#cbb095" opacity="0.6"/>
        <rect id="Rectangle_728" data-name="Rectangle 728" width="82.785" height="40.504" transform="translate(354.453 187.243)" fill="#a87c4f"/>
        <rect id="Rectangle_729" data-name="Rectangle 729" width="24.871" height="40.504" transform="translate(412.366 187.243)" fill="#231f20" opacity="0.05"/>
        <rect id="Rectangle_730" data-name="Rectangle 730" width="88.115" height="6.395" transform="translate(351.965 227.037)" fill="#7e5d3b"/>
        <g id="Group_1041" data-name="Group 1041" transform="translate(164.722 187.243)">
          <rect id="Rectangle_731" data-name="Rectangle 731" width="68.573" height="97.352" transform="translate(2.842)" fill="#a87c4f"/>
          <rect id="Rectangle_732" data-name="Rectangle 732" width="20.607" height="97.352" transform="translate(50.453 0.355)" fill="#231f20" opacity="0.1"/>
          <rect id="Rectangle_733" data-name="Rectangle 733" width="74.613" height="6.395" transform="translate(0 96.642)" fill="#7e5d3b"/>
        </g>
        <line id="Line_267" data-name="Line 267" y1="61.822" x2="167.702" transform="translate(121.02 98.418)" fill="none" stroke="#cbb095" stroke-miterlimit="10" stroke-width="4"/>
        <g id="Group_1042" data-name="Group 1042" transform="translate(85.845 144.252)">
          <path id="Path_36201" data-name="Path 36201" d="M57.542,258.78A19.715,19.715,0,0,1,38,239.238V95.342A19.715,19.715,0,0,1,57.542,75.8c10.659,0,19.542,2.636,19.542,13.3V239.238A19.715,19.715,0,0,1,57.542,258.78Z" transform="translate(-38 -75.8)" fill="#d40404"/>
        </g>
        <line id="Line_268" data-name="Line 268" x1="167.347" y1="61.822" transform="translate(317.501 103.037)" fill="none" stroke="#cbb095" stroke-miterlimit="10" stroke-width="4"/>
        <g id="Group_1043" data-name="Group 1043" transform="translate(473.833 142.831)">
          <path id="Path_36202" data-name="Path 36202" d="M166.742,267.262A19.715,19.715,0,0,1,147.2,247.721V90.163c0-10.659,8.883-14.763,19.542-14.763a19.715,19.715,0,0,1,19.542,19.542V247.721A19.264,19.264,0,0,1,166.742,267.262Z" transform="translate(-147.2 -75.4)" fill="#c11b27"/>
        </g>
        <g id="Group_1046" data-name="Group 1046" transform="translate(93.685 250.499)" opacity="0.25">
          <g id="Group_1044" data-name="Group 1044" transform="translate(0.465)">
            <path id="Path_36203" data-name="Path 36203" d="M50.864,129.5c-.711,0-1.777-.711-1.777-1.421a2.021,2.021,0,0,1,1.421-2.487,10.972,10.972,0,0,0,5.685-3.908,7.609,7.609,0,0,0,1.066-6.751,6.341,6.341,0,0,0-3.2-4.264,5.668,5.668,0,0,0-5.329-.711c-2.842.711-4.619,3.553-3.908,6.04a3.6,3.6,0,0,0,4.264,2.842,2.542,2.542,0,0,0,1.777-3.2,2.026,2.026,0,0,1,3.908-1.066A6.546,6.546,0,0,1,49.8,122.39a7.633,7.633,0,0,1-9.238-5.685,8.725,8.725,0,0,1,6.751-10.659,9.6,9.6,0,0,1,8.172,1.421,9.186,9.186,0,0,1,4.619,6.751,12.676,12.676,0,0,1-1.777,9.948,12.463,12.463,0,0,1-8.172,5.685C51.219,129.5,50.864,129.5,50.864,129.5Z" transform="translate(-40.337 -105.703)" fill="#231f20"/>
          </g>
          <g id="Group_1045" data-name="Group 1045" transform="translate(0 19.792)">
            <path id="Path_36204" data-name="Path 36204" d="M50.843,135.527a10.736,10.736,0,0,1-5.685-1.777A9.186,9.186,0,0,1,40.539,127a12.675,12.675,0,0,1,1.777-9.948,12.463,12.463,0,0,1,8.172-5.685,2.026,2.026,0,1,1,1.066,3.908,10.972,10.972,0,0,0-5.685,3.908,7.78,7.78,0,0,0-1.066,6.751A6.34,6.34,0,0,0,48,130.2a5.668,5.668,0,0,0,5.329.711,5.174,5.174,0,0,0,3.2-2.132,4.934,4.934,0,0,0,.711-3.908c-.355-1.066-.711-1.777-1.777-2.132a3.775,3.775,0,0,0-2.842-.355,2.542,2.542,0,0,0-1.777,3.2,2.026,2.026,0,1,1-3.908,1.066,6.546,6.546,0,0,1,4.974-7.817,7.9,7.9,0,0,1,5.685,1.066,9.1,9.1,0,0,1,3.553,4.619c.711,2.487,0,4.619-1.066,6.751a7.415,7.415,0,0,1-5.685,3.908C52.619,135.172,51.553,135.527,50.843,135.527Z" transform="translate(-40.206 -111.274)" fill="#231f20"/>
          </g>
        </g>
        <g id="Group_1049" data-name="Group 1049" transform="translate(93.685 203.599)" opacity="0.25">
          <g id="Group_1047" data-name="Group 1047" transform="translate(0.465)">
            <path id="Path_36205" data-name="Path 36205" d="M50.864,116.3c-.711,0-1.777-.711-1.777-1.421a2.021,2.021,0,0,1,1.421-2.487,10.972,10.972,0,0,0,5.685-3.908,7.61,7.61,0,0,0,1.066-6.751,6.34,6.34,0,0,0-3.2-4.264,5.668,5.668,0,0,0-5.329-.711c-2.842.711-4.619,3.553-3.908,6.04a3.6,3.6,0,0,0,4.264,2.842,2.542,2.542,0,0,0,1.777-3.2,2.026,2.026,0,1,1,3.908-1.066A6.546,6.546,0,0,1,49.8,109.19a7.633,7.633,0,0,1-9.238-5.685,8.725,8.725,0,0,1,6.751-10.659,9.6,9.6,0,0,1,8.172,1.421,9.186,9.186,0,0,1,4.619,6.751,12.675,12.675,0,0,1-1.777,9.948,12.464,12.464,0,0,1-8.172,5.685C51.219,116.3,50.864,116.3,50.864,116.3Z" transform="translate(-40.337 -92.503)" fill="#231f20"/>
          </g>
          <g id="Group_1048" data-name="Group 1048" transform="translate(0 19.792)">
            <path id="Path_36206" data-name="Path 36206" d="M50.843,122.327a10.737,10.737,0,0,1-5.685-1.777,9.186,9.186,0,0,1-4.619-6.751,12.675,12.675,0,0,1,1.777-9.948,12.464,12.464,0,0,1,8.172-5.685,2.026,2.026,0,0,1,1.066,3.908,10.972,10.972,0,0,0-5.685,3.908,7.78,7.78,0,0,0-1.066,6.751A6.341,6.341,0,0,0,48,117a5.668,5.668,0,0,0,5.329.711,5.174,5.174,0,0,0,3.2-2.132,4.934,4.934,0,0,0,.711-3.908c-.355-1.066-.711-1.776-1.777-2.132a3.775,3.775,0,0,0-2.842-.355,2.542,2.542,0,0,0-1.777,3.2,2.026,2.026,0,1,1-3.908,1.066,6.546,6.546,0,0,1,4.974-7.817,7.9,7.9,0,0,1,5.685,1.066,9.1,9.1,0,0,1,3.553,4.619c.711,2.487,0,4.619-1.066,6.751a7.415,7.415,0,0,1-5.685,3.908A16.314,16.314,0,0,1,50.843,122.327Z" transform="translate(-40.206 -98.074)" fill="#231f20"/>
          </g>
        </g>
        <g id="Group_1052" data-name="Group 1052" transform="translate(93.39 156.053)" opacity="0.25">
          <g id="Group_1050" data-name="Group 1050" transform="translate(1.843)">
            <path id="Path_36207" data-name="Path 36207" d="M50.086,102.495c-.711,0-1.777-.711-1.777-1.421a1.566,1.566,0,0,1,1.421-2.132,8.058,8.058,0,0,0,5.685-3.908,9.438,9.438,0,0,0,1.421-6.751,6.9,6.9,0,0,0-8.172-5.329,4.942,4.942,0,0,0-3.908,6.04,3.6,3.6,0,0,0,4.264,2.842,3.107,3.107,0,0,0,2.132-3.2,1.812,1.812,0,1,1,3.553-.711,6.725,6.725,0,0,1-4.974,7.817c-4.264.711-8.172-1.777-8.883-5.685A8.988,8.988,0,0,1,47.6,79.4a11.017,11.017,0,0,1,8.172,1.421,10.254,10.254,0,0,1,4.619,6.751,12.8,12.8,0,0,1-1.777,9.593,12.464,12.464,0,0,1-8.172,5.685Z" transform="translate(-40.642 -79.122)" fill="#231f20"/>
          </g>
          <g id="Group_1051" data-name="Group 1051" transform="translate(0 19.728)">
            <path id="Path_36208" data-name="Path 36208" d="M50.7,108.572a10.737,10.737,0,0,1-5.685-1.777,10.254,10.254,0,0,1-4.619-6.751,12.8,12.8,0,0,1,1.777-9.593,12.464,12.464,0,0,1,8.172-5.685,1.812,1.812,0,1,1,.711,3.553,8.058,8.058,0,0,0-5.685,3.908,9.438,9.438,0,0,0-1.421,6.751,7.072,7.072,0,0,0,2.842,4.264,6.691,6.691,0,0,0,5.329,1.066,5.174,5.174,0,0,0,3.2-2.132,4.934,4.934,0,0,0,.711-3.908,4.112,4.112,0,0,0-1.776-2.487,2.682,2.682,0,0,0-2.842-.355,3.107,3.107,0,0,0-2.132,3.2,1.566,1.566,0,0,1-1.421,2.132,1.566,1.566,0,0,1-2.132-1.421A6.725,6.725,0,0,1,50.7,91.517a7.9,7.9,0,0,1,5.685,1.066,6.977,6.977,0,0,1,3.2,4.619,10.941,10.941,0,0,1-1.066,6.751,8.058,8.058,0,0,1-5.685,3.908C52.476,108.572,51.41,108.572,50.7,108.572Z" transform="translate(-40.123 -84.674)" fill="#231f20"/>
          </g>
        </g>
        <g id="Group_1055" data-name="Group 1055" transform="translate(482.383 250.499)" opacity="0.25">
          <g id="Group_1053" data-name="Group 1053" transform="translate(0.465)">
            <path id="Path_36209" data-name="Path 36209" d="M160.264,129.5c-.711,0-1.776-.711-1.776-1.421a2.021,2.021,0,0,1,1.421-2.487,10.972,10.972,0,0,0,5.685-3.908,7.61,7.61,0,0,0,1.066-6.751,6.341,6.341,0,0,0-3.2-4.264,5.668,5.668,0,0,0-5.33-.711c-2.842.711-4.619,3.553-3.908,6.04a3.6,3.6,0,0,0,4.264,2.842,2.542,2.542,0,0,0,1.776-3.2,2.026,2.026,0,0,1,3.908-1.066,6.546,6.546,0,0,1-4.974,7.817,7.633,7.633,0,0,1-9.238-5.685,8.725,8.725,0,0,1,6.751-10.659,9.6,9.6,0,0,1,8.172,1.421,9.186,9.186,0,0,1,4.619,6.751,12.676,12.676,0,0,1-1.776,9.948,12.464,12.464,0,0,1-8.172,5.685C160.619,129.5,160.264,129.5,160.264,129.5Z" transform="translate(-149.737 -105.703)" fill="#231f20"/>
          </g>
          <g id="Group_1054" data-name="Group 1054" transform="translate(0 19.792)">
            <path id="Path_36210" data-name="Path 36210" d="M160.243,135.527a10.736,10.736,0,0,1-5.685-1.777A9.186,9.186,0,0,1,149.939,127a12.675,12.675,0,0,1,1.776-9.948,12.463,12.463,0,0,1,8.172-5.685,2.026,2.026,0,0,1,1.066,3.908,10.972,10.972,0,0,0-5.685,3.908,7.78,7.78,0,0,0-1.066,6.751,6.341,6.341,0,0,0,3.2,4.264,5.668,5.668,0,0,0,5.33.711,5.174,5.174,0,0,0,3.2-2.132,4.934,4.934,0,0,0,.711-3.908c-.355-1.066-.711-1.777-1.776-2.132a3.775,3.775,0,0,0-2.842-.355,2.542,2.542,0,0,0-1.777,3.2,2.026,2.026,0,1,1-3.908,1.066,6.546,6.546,0,0,1,4.974-7.817,7.9,7.9,0,0,1,5.685,1.066,9.1,9.1,0,0,1,3.553,4.619c.711,2.487,0,4.619-1.066,6.751a7.415,7.415,0,0,1-5.685,3.908C162.019,135.172,161.309,135.527,160.243,135.527Z" transform="translate(-149.606 -111.274)" fill="#231f20"/>
          </g>
        </g>
        <g id="Group_1058" data-name="Group 1058" transform="translate(482.383 203.599)" opacity="0.25">
          <g id="Group_1056" data-name="Group 1056" transform="translate(0.465)">
            <path id="Path_36211" data-name="Path 36211" d="M160.264,116.3c-.711,0-1.776-.711-1.776-1.421a2.021,2.021,0,0,1,1.421-2.487,10.972,10.972,0,0,0,5.685-3.908,7.61,7.61,0,0,0,1.066-6.751,6.341,6.341,0,0,0-3.2-4.264,5.668,5.668,0,0,0-5.33-.711c-2.842.711-4.619,3.553-3.908,6.04a3.6,3.6,0,0,0,4.264,2.842,2.542,2.542,0,0,0,1.776-3.2,2.026,2.026,0,0,1,3.908-1.066,6.546,6.546,0,0,1-4.974,7.817,7.633,7.633,0,0,1-9.238-5.685,8.725,8.725,0,0,1,6.751-10.659,9.6,9.6,0,0,1,8.172,1.421,9.186,9.186,0,0,1,4.619,6.751,12.676,12.676,0,0,1-1.776,9.948,12.464,12.464,0,0,1-8.172,5.685C160.619,116.3,160.264,116.3,160.264,116.3Z" transform="translate(-149.737 -92.503)" fill="#231f20"/>
          </g>
          <g id="Group_1057" data-name="Group 1057" transform="translate(0 19.792)">
            <path id="Path_36212" data-name="Path 36212" d="M160.243,122.327a10.736,10.736,0,0,1-5.685-1.777,9.186,9.186,0,0,1-4.619-6.751,12.675,12.675,0,0,1,1.776-9.948,12.464,12.464,0,0,1,8.172-5.685,2.026,2.026,0,0,1,1.066,3.908,10.972,10.972,0,0,0-5.685,3.908,7.78,7.78,0,0,0-1.066,6.751A6.341,6.341,0,0,0,157.4,117a5.668,5.668,0,0,0,5.33.711,5.174,5.174,0,0,0,3.2-2.132,4.934,4.934,0,0,0,.711-3.908c-.355-1.066-.711-1.776-1.776-2.132a3.775,3.775,0,0,0-2.842-.355,2.542,2.542,0,0,0-1.777,3.2,2.026,2.026,0,1,1-3.908,1.066,6.546,6.546,0,0,1,4.974-7.817,7.9,7.9,0,0,1,5.685,1.066,9.1,9.1,0,0,1,3.553,4.619c.711,2.487,0,4.619-1.066,6.751a7.415,7.415,0,0,1-5.685,3.908A14.717,14.717,0,0,1,160.243,122.327Z" transform="translate(-149.606 -98.074)" fill="#231f20"/>
          </g>
        </g>
        <g id="Group_1061" data-name="Group 1061" transform="translate(482.088 156.053)" opacity="0.25">
          <g id="Group_1059" data-name="Group 1059" transform="translate(1.843)">
            <path id="Path_36213" data-name="Path 36213" d="M159.486,102.495c-.711,0-1.776-.711-1.776-1.421a1.566,1.566,0,0,1,1.421-2.132,8.058,8.058,0,0,0,5.685-3.908,9.438,9.438,0,0,0,1.421-6.751,6.9,6.9,0,0,0-8.172-5.329,4.942,4.942,0,0,0-3.908,6.04,3.6,3.6,0,0,0,4.264,2.842,3.107,3.107,0,0,0,2.132-3.2,1.812,1.812,0,1,1,3.553-.711,6.725,6.725,0,0,1-4.974,7.817c-4.264.711-8.172-1.777-8.883-5.685A8.988,8.988,0,0,1,157,79.4a11.017,11.017,0,0,1,8.172,1.421,10.254,10.254,0,0,1,4.619,6.751,12.8,12.8,0,0,1-1.777,9.593,12.464,12.464,0,0,1-8.172,5.685A.348.348,0,0,0,159.486,102.495Z" transform="translate(-150.042 -79.122)" fill="#231f20"/>
          </g>
          <g id="Group_1060" data-name="Group 1060" transform="translate(0 19.728)">
            <path id="Path_36214" data-name="Path 36214" d="M160.1,108.572a10.737,10.737,0,0,1-5.685-1.777,10.254,10.254,0,0,1-4.619-6.751,12.8,12.8,0,0,1,1.776-9.593,12.463,12.463,0,0,1,8.172-5.685,1.812,1.812,0,1,1,.711,3.553,8.058,8.058,0,0,0-5.685,3.908,9.438,9.438,0,0,0-1.421,6.751,7.072,7.072,0,0,0,2.842,4.264,6.691,6.691,0,0,0,5.329,1.066,5.174,5.174,0,0,0,3.2-2.132,4.934,4.934,0,0,0,.711-3.908,4.112,4.112,0,0,0-1.776-2.487,2.682,2.682,0,0,0-2.842-.355,3.107,3.107,0,0,0-2.132,3.2,1.812,1.812,0,0,1-3.553.711,6.725,6.725,0,0,1,4.974-7.817,7.9,7.9,0,0,1,5.685,1.066,6.977,6.977,0,0,1,3.2,4.619,10.941,10.941,0,0,1-1.066,6.751,8.058,8.058,0,0,1-5.685,3.908C161.876,108.572,160.81,108.572,160.1,108.572Z" transform="translate(-149.523 -84.674)" fill="#231f20"/>
          </g>
        </g>
        <path id="Path_36215" data-name="Path 36215" d="M397.905,127.459,49,127.814,59.3,116.8H387.957Z" transform="translate(75.928 173.125)" fill="#cbb095"/>
        <g id="Group_1062" data-name="Group 1062" transform="translate(85.49 152.424)" opacity="0.2">
          <path id="Path_36216" data-name="Path 36216" d="M37.9,111.5V91.246L78.049,78.1V98.352Z" transform="translate(-37.9 -78.1)" fill="#231f20"/>
        </g>
        <g id="Group_1063" data-name="Group 1063" transform="translate(473.833 154.2)" opacity="0.2">
          <path id="Path_36217" data-name="Path 36217" d="M186.994,112V91.746L147.2,78.6V98.852Z" transform="translate(-147.2 -78.6)" fill="#231f20"/>
        </g>
        <g id="Group_1064" data-name="Group 1064" transform="translate(0 53.788)">
          <path id="Path_36218" data-name="Path 36218" d="M33.6,191.611A20.277,20.277,0,0,1,15.122,178.82c-3.908-10.3,1.421-21.318,11.725-25.226l275-101.971c10.3-3.908,21.318,1.421,25.226,11.725s-1.421,21.318-11.725,25.226l-275,101.971A24.143,24.143,0,0,1,33.6,191.611Z" transform="translate(-13.839 -50.339)" fill="#d40404"/>
        </g>
        <g id="Group_1065" data-name="Group 1065" transform="translate(279.764 52.865)">
          <path id="Path_36219" data-name="Path 36219" d="M387.2,191.564a22.309,22.309,0,0,1-6.751-1.066l-275-102.327a19.67,19.67,0,1,1,13.5-36.951l275,101.971a19.763,19.763,0,0,1,11.725,25.226A19.407,19.407,0,0,1,387.2,191.564Z" transform="translate(-92.579 -50.079)" fill="#c11b27"/>
        </g>
        <g id="Group_1066" data-name="Group 1066" transform="translate(279.129)">
          <path id="Path_36220" data-name="Path 36220" d="M111.942,361.366c-10.659,0-19.542-9.238-19.542-20.252V55.452c0-11.37,8.883-20.252,19.542-20.252s19.542,9.238,19.542,20.252V340.758C131.483,352.128,122.956,361.366,111.942,361.366Z" transform="translate(-92.4 -35.2)" fill="#d40404"/>
        </g>
        <g id="Group_1069" data-name="Group 1069" transform="translate(288.034 250.499)" opacity="0.25">
          <g id="Group_1067" data-name="Group 1067" transform="translate(0.465)">
            <path id="Path_36221" data-name="Path 36221" d="M105.564,129.5c-.711,0-1.777-.711-1.777-1.421a2.021,2.021,0,0,1,1.421-2.487,10.972,10.972,0,0,0,5.685-3.908,7.609,7.609,0,0,0,1.066-6.751,6.341,6.341,0,0,0-3.2-4.264,5.668,5.668,0,0,0-5.329-.711c-2.842.711-4.619,3.553-3.908,6.04a3.6,3.6,0,0,0,4.264,2.842,2.542,2.542,0,0,0,1.777-3.2,2.026,2.026,0,0,1,3.908-1.066,6.546,6.546,0,0,1-4.974,7.817,7.633,7.633,0,0,1-9.238-5.685,8.725,8.725,0,0,1,6.751-10.659,9.6,9.6,0,0,1,8.172,1.421,9.185,9.185,0,0,1,4.619,6.751,12.675,12.675,0,0,1-1.776,9.948,12.463,12.463,0,0,1-8.172,5.685C105.919,129.5,105.564,129.5,105.564,129.5Z" transform="translate(-95.037 -105.703)" fill="#231f20"/>
          </g>
          <g id="Group_1068" data-name="Group 1068" transform="translate(0 19.792)">
            <path id="Path_36222" data-name="Path 36222" d="M105.543,135.527a10.736,10.736,0,0,1-5.685-1.777A9.185,9.185,0,0,1,95.239,127a12.675,12.675,0,0,1,1.777-9.948,12.463,12.463,0,0,1,8.172-5.685,2.026,2.026,0,1,1,1.066,3.908,10.972,10.972,0,0,0-5.685,3.908,7.78,7.78,0,0,0-1.066,6.751,6.341,6.341,0,0,0,3.2,4.264,5.668,5.668,0,0,0,5.329.711,5.174,5.174,0,0,0,3.2-2.132,4.934,4.934,0,0,0,.711-3.908c-.355-1.066-.711-1.777-1.777-2.132a3.775,3.775,0,0,0-2.842-.355,2.542,2.542,0,0,0-1.777,3.2,2.026,2.026,0,1,1-3.908,1.066,6.546,6.546,0,0,1,4.974-7.817,7.9,7.9,0,0,1,5.685,1.066,9.1,9.1,0,0,1,3.553,4.619c.711,2.487,0,4.619-1.066,6.751a8.058,8.058,0,0,1-5.685,3.908C107.319,135.172,106.253,135.527,105.543,135.527Z" transform="translate(-94.906 -111.274)" fill="#231f20"/>
          </g>
        </g>
        <g id="Group_1072" data-name="Group 1072" transform="translate(288.034 203.599)" opacity="0.25">
          <g id="Group_1070" data-name="Group 1070" transform="translate(0.465)">
            <path id="Path_36223" data-name="Path 36223" d="M105.564,116.3c-.711,0-1.777-.711-1.777-1.421a2.021,2.021,0,0,1,1.421-2.487,10.972,10.972,0,0,0,5.685-3.908,7.61,7.61,0,0,0,1.066-6.751,6.341,6.341,0,0,0-3.2-4.264,5.668,5.668,0,0,0-5.329-.711c-2.842.711-4.619,3.553-3.908,6.04a3.6,3.6,0,0,0,4.264,2.842,2.542,2.542,0,0,0,1.777-3.2,2.026,2.026,0,1,1,3.908-1.066,6.546,6.546,0,0,1-4.974,7.817,7.633,7.633,0,0,1-9.238-5.685,8.725,8.725,0,0,1,6.751-10.659,9.6,9.6,0,0,1,8.172,1.421,9.186,9.186,0,0,1,4.619,6.751,12.675,12.675,0,0,1-1.776,9.948,12.464,12.464,0,0,1-8.172,5.685C105.919,116.3,105.564,116.3,105.564,116.3Z" transform="translate(-95.037 -92.503)" fill="#231f20"/>
          </g>
          <g id="Group_1071" data-name="Group 1071" transform="translate(0 19.792)">
            <path id="Path_36224" data-name="Path 36224" d="M105.543,122.327a10.737,10.737,0,0,1-5.685-1.777,9.185,9.185,0,0,1-4.619-6.751,12.675,12.675,0,0,1,1.777-9.948,12.464,12.464,0,0,1,8.172-5.685,2.026,2.026,0,0,1,1.066,3.908,10.972,10.972,0,0,0-5.685,3.908,7.78,7.78,0,0,0-1.066,6.751A6.341,6.341,0,0,0,102.7,117a5.668,5.668,0,0,0,5.329.711,5.174,5.174,0,0,0,3.2-2.132,4.934,4.934,0,0,0,.711-3.908c-.355-1.066-.711-1.776-1.777-2.132a3.775,3.775,0,0,0-2.842-.355,2.542,2.542,0,0,0-1.777,3.2,2.026,2.026,0,1,1-3.908,1.066,6.546,6.546,0,0,1,4.974-7.817,7.9,7.9,0,0,1,5.685,1.066,9.1,9.1,0,0,1,3.553,4.619c.711,2.487,0,4.619-1.066,6.751a8.058,8.058,0,0,1-5.685,3.908A16.314,16.314,0,0,1,105.543,122.327Z" transform="translate(-94.906 -98.074)" fill="#231f20"/>
          </g>
        </g>
        <g id="Group_1075" data-name="Group 1075" transform="translate(287.739 156.053)" opacity="0.25">
          <g id="Group_1073" data-name="Group 1073" transform="translate(1.843)">
            <path id="Path_36225" data-name="Path 36225" d="M104.786,102.495c-.711,0-1.777-.711-1.777-1.421a1.566,1.566,0,0,1,1.421-2.132,8.058,8.058,0,0,0,5.685-3.908,9.438,9.438,0,0,0,1.421-6.751,6.9,6.9,0,0,0-8.172-5.329,4.942,4.942,0,0,0-3.908,6.04,3.6,3.6,0,0,0,4.264,2.842,3.107,3.107,0,0,0,2.132-3.2,1.812,1.812,0,1,1,3.553-.711,6.725,6.725,0,0,1-4.974,7.817c-4.264.711-8.172-1.777-8.883-5.685A8.988,8.988,0,0,1,102.3,79.4a11.017,11.017,0,0,1,8.172,1.421,10.254,10.254,0,0,1,4.619,6.751,12.8,12.8,0,0,1-1.776,9.593,12.464,12.464,0,0,1-8.172,5.685A.348.348,0,0,0,104.786,102.495Z" transform="translate(-95.342 -79.122)" fill="#231f20"/>
          </g>
          <g id="Group_1074" data-name="Group 1074" transform="translate(0 19.728)">
            <path id="Path_36226" data-name="Path 36226" d="M105.4,108.572a10.736,10.736,0,0,1-5.685-1.777,10.254,10.254,0,0,1-4.619-6.751,12.8,12.8,0,0,1,1.776-9.593,12.464,12.464,0,0,1,8.172-5.685,1.812,1.812,0,1,1,.711,3.553,8.058,8.058,0,0,0-5.685,3.908,9.438,9.438,0,0,0-1.421,6.751,7.073,7.073,0,0,0,2.842,4.264,6.691,6.691,0,0,0,5.329,1.066,5.174,5.174,0,0,0,3.2-2.132,4.934,4.934,0,0,0,.711-3.908,4.112,4.112,0,0,0-1.776-2.487,2.682,2.682,0,0,0-2.842-.355,3.107,3.107,0,0,0-2.132,3.2,1.812,1.812,0,0,1-3.553.711,6.725,6.725,0,0,1,4.974-7.817,7.9,7.9,0,0,1,5.685,1.066,6.977,6.977,0,0,1,3.2,4.619,10.941,10.941,0,0,1-1.066,6.751,8.058,8.058,0,0,1-5.685,3.908C107.176,108.572,106.11,108.572,105.4,108.572Z" transform="translate(-94.823 -84.674)" fill="#231f20"/>
          </g>
        </g>
        <g id="Group_1078" data-name="Group 1078" transform="translate(288.034 107.668)" opacity="0.25">
          <g id="Group_1076" data-name="Group 1076" transform="translate(0.465)">
            <path id="Path_36227" data-name="Path 36227" d="M105.564,89.3c-.711,0-1.777-.711-1.777-1.421a2.021,2.021,0,0,1,1.421-2.487,10.972,10.972,0,0,0,5.685-3.908,7.609,7.609,0,0,0,1.066-6.751,6.341,6.341,0,0,0-3.2-4.264,5.668,5.668,0,0,0-5.329-.711c-2.842.711-4.619,3.553-3.908,6.04a3.6,3.6,0,0,0,4.264,2.842,2.542,2.542,0,0,0,1.777-3.2,2.026,2.026,0,1,1,3.908-1.066A6.546,6.546,0,0,1,104.5,82.19a7.633,7.633,0,0,1-9.238-5.685,8.725,8.725,0,0,1,6.751-10.659,9.6,9.6,0,0,1,8.172,1.421,9.185,9.185,0,0,1,4.619,6.751,12.675,12.675,0,0,1-1.776,9.948,12.464,12.464,0,0,1-8.172,5.685C105.919,89.3,105.564,89.3,105.564,89.3Z" transform="translate(-95.037 -65.503)" fill="#231f20"/>
          </g>
          <g id="Group_1077" data-name="Group 1077" transform="translate(0 19.792)">
            <path id="Path_36228" data-name="Path 36228" d="M105.543,95.327a10.737,10.737,0,0,1-5.685-1.776A9.186,9.186,0,0,1,95.239,86.8a12.675,12.675,0,0,1,1.777-9.948,12.464,12.464,0,0,1,8.172-5.685,2.026,2.026,0,0,1,1.066,3.908,10.972,10.972,0,0,0-5.685,3.908,9.33,9.33,0,0,0-1.776,7.106,6.341,6.341,0,0,0,3.2,4.264,5.668,5.668,0,0,0,5.329.711,5.174,5.174,0,0,0,3.2-2.132,4.934,4.934,0,0,0,.711-3.908c-.355-1.066-.711-1.777-1.776-2.132a3.775,3.775,0,0,0-2.842-.355,2.542,2.542,0,0,0-1.776,3.2,2.026,2.026,0,1,1-3.908,1.066,6.546,6.546,0,0,1,4.974-7.817,7.9,7.9,0,0,1,5.685,1.066,9.1,9.1,0,0,1,3.553,4.619c.711,2.487,0,4.619-1.066,6.751a8.058,8.058,0,0,1-5.685,3.908Z" transform="translate(-94.906 -71.074)" fill="#231f20"/>
          </g>
        </g>
        <g id="Group_1081" data-name="Group 1081" transform="translate(288.034 61.124)" opacity="0.25">
          <g id="Group_1079" data-name="Group 1079" transform="translate(0.465)">
            <path id="Path_36229" data-name="Path 36229" d="M105.564,76.2c-.711,0-1.777-.711-1.777-1.421a2.021,2.021,0,0,1,1.421-2.487,10.972,10.972,0,0,0,5.685-3.908,7.609,7.609,0,0,0,1.066-6.751,6.341,6.341,0,0,0-3.2-4.264,5.668,5.668,0,0,0-5.329-.711c-2.842.711-4.619,3.553-3.908,6.04a3.6,3.6,0,0,0,4.264,2.842,2.542,2.542,0,0,0,1.777-3.2,2.026,2.026,0,1,1,3.908-1.066A6.546,6.546,0,0,1,104.5,69.09a7.633,7.633,0,0,1-9.238-5.685,8.725,8.725,0,0,1,6.751-10.659,9.6,9.6,0,0,1,8.172,1.421,9.185,9.185,0,0,1,4.619,6.751,12.675,12.675,0,0,1-1.776,9.948,12.463,12.463,0,0,1-8.172,5.685C105.919,76.2,105.564,76.2,105.564,76.2Z" transform="translate(-95.037 -52.403)" fill="#231f20"/>
          </g>
          <g id="Group_1080" data-name="Group 1080" transform="translate(0 19.792)">
            <path id="Path_36230" data-name="Path 36230" d="M105.543,82.227a10.737,10.737,0,0,1-5.685-1.777A9.186,9.186,0,0,1,95.239,73.7a12.675,12.675,0,0,1,1.777-9.948,12.463,12.463,0,0,1,8.172-5.685,2.026,2.026,0,0,1,1.066,3.908,10.972,10.972,0,0,0-5.685,3.908A7.78,7.78,0,0,0,99.5,72.634a6.341,6.341,0,0,0,3.2,4.264,5.668,5.668,0,0,0,5.329.711,5.174,5.174,0,0,0,3.2-2.132,4.934,4.934,0,0,0,.711-3.908c-.355-1.066-.711-1.777-1.777-2.132a3.775,3.775,0,0,0-2.842-.355,2.542,2.542,0,0,0-1.777,3.2,2.026,2.026,0,1,1-3.908,1.066,6.546,6.546,0,0,1,4.974-7.817,7.9,7.9,0,0,1,5.685,1.066,9.1,9.1,0,0,1,3.553,4.619c.711,2.487,0,4.619-1.066,6.751a8.058,8.058,0,0,1-5.685,3.908A16.314,16.314,0,0,1,105.543,82.227Z" transform="translate(-94.906 -57.974)" fill="#231f20"/>
          </g>
        </g>
        <g id="Group_1084" data-name="Group 1084" transform="translate(287.739 13.578)" opacity="0.25">
          <g id="Group_1082" data-name="Group 1082" transform="translate(1.843)">
            <path id="Path_36231" data-name="Path 36231" d="M104.786,62.395c-.711,0-1.777-.711-1.777-1.421a1.566,1.566,0,0,1,1.421-2.132,8.058,8.058,0,0,0,5.685-3.908,9.438,9.438,0,0,0,1.421-6.751,6.9,6.9,0,0,0-8.172-5.329,4.942,4.942,0,0,0-3.908,6.04,3.6,3.6,0,0,0,4.264,2.842,3.107,3.107,0,0,0,2.132-3.2,1.812,1.812,0,1,1,3.553-.711,6.725,6.725,0,0,1-4.974,7.817c-4.264.711-8.172-1.777-8.883-5.685A8.988,8.988,0,0,1,102.3,39.3a11.017,11.017,0,0,1,8.172,1.421,10.254,10.254,0,0,1,4.619,6.751,12.8,12.8,0,0,1-1.776,9.593,12.464,12.464,0,0,1-8.172,5.685A.348.348,0,0,0,104.786,62.395Z" transform="translate(-95.342 -39.022)" fill="#231f20"/>
          </g>
          <g id="Group_1083" data-name="Group 1083" transform="translate(0 19.728)">
            <path id="Path_36232" data-name="Path 36232" d="M105.4,68.472A10.736,10.736,0,0,1,99.715,66.7,10.253,10.253,0,0,1,95.1,59.944a12.8,12.8,0,0,1,1.776-9.593,12.464,12.464,0,0,1,8.172-5.685,1.566,1.566,0,0,1,2.132,1.421,1.566,1.566,0,0,1-1.421,2.132,8.058,8.058,0,0,0-5.685,3.908C99,54.26,98.293,56.747,99,58.878a7.072,7.072,0,0,0,2.842,4.264,6.691,6.691,0,0,0,5.33,1.066,5.174,5.174,0,0,0,3.2-2.132,4.934,4.934,0,0,0,.711-3.908,4.112,4.112,0,0,0-1.777-2.487,2.682,2.682,0,0,0-2.842-.355,3.107,3.107,0,0,0-2.132,3.2,1.812,1.812,0,0,1-3.553.711,6.725,6.725,0,0,1,4.974-7.817,7.9,7.9,0,0,1,5.685,1.066,6.977,6.977,0,0,1,3.2,4.619,10.941,10.941,0,0,1-1.066,6.751,8.058,8.058,0,0,1-5.685,3.908A6.587,6.587,0,0,1,105.4,68.472Z" transform="translate(-94.823 -44.574)" fill="#231f20"/>
          </g>
        </g>
        <g id="Group_1085" data-name="Group 1085" transform="translate(259.587 58.365)" opacity="0.2">
          <path id="Path_36233" data-name="Path 36233" d="M86.9,100.831l19.186-7.114.355-42.089L86.9,58.992Z" transform="translate(-86.9 -51.627)" fill="#231f20"/>
        </g>
        <g id="Group_1086" data-name="Group 1086" transform="translate(318.212 58.625)" opacity="0.2">
          <path id="Path_36234" data-name="Path 36234" d="M122.586,100.922,103.4,93.551V51.7l19.186,6.751Z" transform="translate(-103.4 -51.7)" fill="#231f20"/>
        </g>
      </g>
    </g>
    <path id="Path_36235" data-name="Path 36235" d="M498.3,125.8H32.674q5.218,9.854,11.242,19.186H487.061Q493.062,135.649,498.3,125.8Z" transform="translate(48.087 277.225)" fill="#dccbb8"/>
    <path id="Path_36236" data-name="Path 36236" d="M32.327,138.709c.476.917.931,1.848,1.414,2.761l465.444-.348c.38-.721.739-1.45,1.112-2.174L479.554,119.8H50Z" transform="translate(47.201 261.906)" fill="#cbb095"/>
    <path id="Path_36237" data-name="Path 36237" d="M59.4,214.7V78.453L48.964,82.321V225.713Z" transform="translate(89.675 156.349)" fill="#c4141d"/>
    <path id="Path_36238" data-name="Path 36238" d="M154.348,224.639,144.4,213.98V78.735l9.948,3.7Z" transform="translate(333.324 157.067)" fill="#b71828"/>
  </g>
</svg>
